<svg xmlns="http://www.w3.org/2000/svg" xmlns:xlink="http://www.w3.org/1999/xlink" width="4682" height="918" viewBox="0 0 4682 918"><defs><clipPath id="b"><rect width="4682" height="918"/></clipPath></defs><g id="a" clip-path="url(#b)"><g transform="translate(-547.257 -354)"><g transform="translate(547.257 354)"><text transform="translate(613.3 738)" fill="#707070" font-size="757" font-family="HelveticaNeue-Thin, Helvetica Neue" font-weight="200"><tspan x="0" y="0">Thynk</tspan><tspan y="0" font-family="HelveticaNeue-Bold, Helvetica Neue" font-weight="700">house</tspan></text><g transform="translate(0 197.684)"><path d="M385.448,543.7H160.3A96.714,96.714,0,0,1,60.1,451.632v-120.7a19.343,19.343,0,1,1,38.685,0v120.7a58.028,58.028,0,0,0,61.51,53.386H385.448a58.028,58.028,0,0,0,61.51-53.386v-120.7a19.343,19.343,0,1,1,38.685,0v120.7a96.714,96.714,0,0,1-100.2,92.072ZM538.062,286.638a19.343,19.343,0,0,0,0-27.467L286.607,7.716a19.343,19.343,0,0,0-27.467,0L7.684,259.171a19.422,19.422,0,0,0,27.467,27.467L272.873,48.722,510.6,286.638a19.343,19.343,0,0,0,27.467,0Z" transform="translate(-1.996 -1.994)" fill="#42EF94"/><path d="M209.084,194.723s1.091-.773,2.829-2.1c26.03-20.129,42.344-49.315,42.344-81.776,0-60.545-56.922-109.67-127.1-109.67C56.964,1.18,0,50.305,0,110.85c0,60.566,56.9,109.712,127.107,109.712a145.79,145.79,0,0,0,26.739-2.415l2.776-.477c17.83,11.569,43.849,21.082,66.615,21.082,7.045,0,10.361-5.784,5.848-11.7-6.865-8.422-16.325-21.908-20-32.333ZM193.6,146.775c-7.585,11.325-31.083,30.606-66.255,30.606h-.487c-35.257,0-58.723-19.4-66.255-30.606a12.045,12.045,0,0,1-2.892-6.081,5.191,5.191,0,0,1,4.736-5.572.566.566,0,0,1,.222-.032,6.661,6.661,0,0,1,3.475,1.176A96.8,96.8,0,0,0,127.1,158.047a93.28,93.28,0,0,0,61.022-21.813,4.884,4.884,0,0,1,3.316-1.292,5.11,5.11,0,0,1,5.117,5.032,14,14,0,0,1-2.839,6.812H193.6Z" transform="translate(143.765 191.697)" fill="#42EF94"/></g></g></g></g></svg>